{
  "name": "Wan.Gu.Long.Shen.S01.2022.2160p.WEB-DL.H.265.10bit.HDR10.AAC.2.0-CSWEB",
  "category": "Animations(动漫)",
  "title": "Wan Gu Long Shen S01 2022 2160p WEB-DL H265 10bit HDR10 AAC 2 0-CSWEB",
  "introduction": "万古龙神 动态漫 | 全48集 | 导演：曾辉 | 演员：张洋 / G迪迦 | [国语] | ARDTU",
  "standard": "4K",
  "videoCodec": "MPEG-4",
  "audioCodec": "HEVC",
  "productionTeam": "Other",
  "region": "",
  "language": "",
  "subtitleType": "",
  "imdbUrl": "",
  "doubanUrl": "",
  "description": "<br/><br/>\n<fieldset><legend> 引用 </legend><br/><b><span style=\"color: Blue;word-break: break-word\"><font size=\"5\">财神官组作品，感谢原制作者发布。By ARDTU</font></span></b></fieldset><br/><br/>\n<fieldset><legend> 引用 </legend><br/><b><span style=\"color: Blue;word-break: break-word\"><font size=\"4\">CSPT官方作品，感谢原作者发布</font></span></b></fieldset><br/><br/>\n<br/>\n<br/><br/>\n<br/>\n<br/><br/>\n<br/>\n<br/>\n<br/>\n<img alt=\"image\" id=\"\" onclick=\"Preview(this);\" onload=\"Scale(this,700,0);\" src=\"https://img1.pixhost.to/images/10173/661103692_20251115-115400-384796.png\" style=\"max-width: 100%\"/><br/>\n<br/>\n<img alt=\"image\" id=\"\" onclick=\"Preview(this);\" onload=\"Scale(this,700,0);\" src=\"https://img1.pixhost.to/images/10173/661103767_20251115-115333-465739.png\" style=\"max-width: 100%\"/><br/>\n<br/>\n<img alt=\"image\" id=\"\" onclick=\"Preview(this);\" onload=\"Scale(this,700,0);\" src=\"https://img1.pixhost.to/images/10173/661103770_20251115-115336-148509.png\" style=\"max-width: 100%\"/><br/>\n<br/>\n<img alt=\"image\" id=\"\" onclick=\"Preview(this);\" onload=\"Scale(this,700,0);\" src=\"https://img1.pixhost.to/images/10173/661103777_20251115-115341-185320.png\" style=\"max-width: 100%\"/>",
  "mediaInfo": "General\nComplete name                            : /downloads/Wan.Gu.Long.Shen.S01.2022.2160p.WEB-DL.H.265.10bit.HDR10.AAC.2.0-CSWEB/Wan.Gu.Long.Shen.S01E01.2022.2160p.WEB-DL.H.265.10bit.HDR10.AAC.2.0-CSWEB.mp4\nFormat                                   : MPEG-4\nFormat profile                           : Base Media\nCodec ID                                 : isom (isom/iso2/mp41)\nFile size                                : 420 MiB\nDuration            : 7 min 51 s\nOverall bit rate                         : 7 479 kb/s\nFrame rate                               : 24.000 FPS\nDescription                            : Bilibili VXCode Swarm Transcoder v1.2.8\nWriting application                      : Lavf62.3.100\n\nVideo\nID                                       : 1\nFormat                     
              : HEVC\nFormat/Info                              : High Efficiency Video Coding\nFormat profile                           : Main 10@L5@High\nHDR format                   
            : SMPTE ST 2086, HDR10 compatible\nCodec ID                                 : hvc1\nCodec ID/Info                            : High Efficiency Video Coding\nDuration                                 : 7 min 51 s\nBit rate                                 : 7 157 kb/s\nWidth                                    : 3 840 pixels\nHeight                          
         : 2 160 pixels\nDisplay aspect ratio                     : 16: 9\nFrame rate mode                          : Variable\nFrame rate                               : 24.000 FPS\nMinimum frame rate                       : 23.810 FPS\nMaximum frame rate                       : 24.390 FPS\nColor space                              : YUV\nChroma subsampling          
             : 4: 2: 0 (Type 0)\nBit depth                                : 10 bits\nBits/(Pixel*Frame)                       : 0.036\nStream size                              : 402 MiB (96%)\nColor range                              : Limited\nColor primaries                          : BT.2020\nTransfer characteristics                 : PQ\nMatrix coefficients                      : BT.2020 non-constant\nMastering display color primaries        : BT.2020\nMastering display luminance              : min: 0.0001 cd/m2, max: 1000 cd/m2\nCodec configuration box                  : hvcC\n\nAudio\nID                                       : 2\nFormat                                   : AAC LC\nFormat/Info                              : Advanced Audio Codec Low Complexity\nCodec ID                                 : mp4a-40-2\nDuration                                 : 7 min 51 s\nBit rate mode                         
   : Constant\nBit rate                                 : 317 kb/s\nChannel(s)                               : 2 channels\nChannel layout                           : L R\nSampling rate                            : 48.0 kHz\nFrame rate                               : 46.875 FPS (1024 SPF)\nCompression mode                         : Lossy\nStream size                 
             : 17.8 MiB (4%)\nDefault                                  : Yes\nAlternate group                          : 1\n\n", "isAnonymous": "false", "originalName": "Wan.Gu.Long.Shen.S01.2022.2160p.WEB-DL.H.265.10bit.HDR10.AAC.2.0-CSWEB", "fileBase64_preview": "<len 28808 chars> ZDg6YW5ub3VuY2U3MjpodHRwczovL3B0em9uZS54eXovYW5ub3VuY2UucGhwP3Bhc3NrZXk9ZmNlNTFiYTE5MjI0ZWIxNTMwNjhjZGIwOWMzNWU5MGE3OmNv..."}{"id": 4,
  "status": "failed",
  "code": 400,
  "text": "{\"code\":9400,\"message\":\"imdbUrl must be a URL address; doubanUrl must be a URL address\",\"data\":{\"message\":[\"imdbUrl must be a URL address\",\"doubanUrl must be a URL address\"],\"error\":\"Bad Request\",\"sta"
}
{
  "name": "Tee.Yai.Born.To.Be.Bad.2025.2160p.NF.WEB-DL.DV.H.265.DDP5.1.Atmos-ADWeb",
  "category": "Movies(电影)",
  "title": "Tee Yai Born To Be Bad 2025 2160p NF WEB-DL DV H.265 DDP5.1 Atmos-ADWeb",
  "introduction": "侠盗之星 ตี๋ใหญ่ ฤกษ์ดาวโจร  又名: Tee Yai Rerk Dao Jone / Ti Yai Ruek Dao Chon / 悍匪传奇 | 类型: 剧情 / 动作 / 犯罪 主演: 纳塔温·崴唐缇派特 / 威思露·和蓝  蓝 / 素帕莎拉·塔纳查",
  "standard": "SD",
  "videoCodec": "Matroska",
  "audioCodec": "HEVC",
  "productionTeam": "",
  "region": "",
  "language": "",
  "subtitleType": "",
  "imdbUrl": "",
  "doubanUrl": "",
  "description": "<br><fieldset><legend> 引用 </legend><br><b><span style=\"color: Blue;word-break: break-word\"><font size=\"5\">Audiences官组作品，感谢原制作者发布。</font></span></b></br></fieldset><br><br><br>\n<br>\n<img alt=\"image\" id=\"\" onclick=\"Preview(this);\" onload=\"Scale(this,700,0);\" src=\"https://douban.cspt.date/douban/b5/df/sid_b5df4b1dd0c6bca1.jpg\" style=\"max-width: 100%\"/><br>\n<br>\n◎译　　名　侠盗之星 / Tee Yai Rerk Dao Jone/Ti Yai Ruek Dao Chon/悍匪传奇<br>\n◎片　　名　ตี๋ใหญ่ ฤกษ์ดาวโจร<br>\n◎年　　代　2025<br   r>\n◎产　　地　泰国<br>\n◎类　　别　剧情 / 动作 / 犯罪<br>\n◎语　　言　泰语<br>\n◎上映日期　2025-11-13(泰国网络)<br>\n◎IMDb链接  <a class=\"faqlink\" href=\"https://www.imdb.com/title/tt35669044/\" target=\"_blank\">https://www.imdb.com/title/tt35669044/</a><br>\n◎豆瓣链接　<a class=\"faqlink\" href=\"https://movie.douban.com/subject/37259668/\" target=\"_blank\">https://movie.douban.com/subject/37259668/</a><br>\n◎片　　长　117分钟<br>\n◎导　　演　朗斯·尼美毕达<br>\n◎编　　剧　霍萨普·阐查纳 / 朗斯·尼美毕达<br>\n◎主　　演　纳塔温·崴唐缇派特<br>\n 　　　　　　威思露·和蓝<br>\n　　　　　　素帕莎拉·塔纳查<br>\n　　　　　　Joke Akarin Akaranithimetrad<br>\n<br>\n◎简　　介<br>\n<br>\n　　　　20世纪80年代的曼谷，一名坚定的侦探正竭尽 全力追捕一伙臭名昭著的盗贼，他们的友谊同时面临着重大考验。<br>\n<br>\n<img alt=\"image\" id=\"\" onclick=\"Preview(this);\" onload=\"Scale(this,700,0);\" src=\"https://stor.picx.cx/images/2025/11/15/cX3l5C.jpg\" style=\"max-width: 100%\"/><br>\n<img alt=\"image\" id=\"\" onclick=\"Preview(this);\" onload=\"Scale(this,700,0);\" src=\"https://stor.picx.cx/images/2025/11/15/cX35SW.jpg\" style=\"max-width: 100%\"/><br>\n<img alt=\"image\" id=\"\" onclick=\"Preview(this);\" onload=\"Scale(this,700,0);\" src=\"https://stor.picx.cx/images/2025/11/15/cX3Pui.jpg\" style=\"max-width: 100%\"/><br>\n<img alt=\"image\" id=\"\" onclick=\"Preview(this);\" onload=\"Scale(this,700,0);\" src=\"https://stor.picx.cx/images/2025/11/15/cX3rYG.jpg\" style=\"max-width: 100%\"/><br>\n<img alt=\"image\" id=\"\" onclick=\"Preview(this);\" onload=\"Scale(this,700,0);\" src=\"https://img1.pixhost.to/images/10175/661123431_69180a7d3431f_0.jpg\" style=\"max-width: 100%\"/><br>\n<img alt=\"image\" id=\"\" onclick=\"Preview(this);\" onload=\"Scale(this,700,0);\" src=\"https://img1.pixhost.to/images/10175/661123434_69180a83afef9_1.jpg\" style=\"max-width: 100%\"/><br/>\n<img alt=\"image\" id=\"\" onclick=\"Preview(this);\" onload=\"Scale(this,700,0);\" src=\"https://img1.pixhost.to/images/10175/661123436_69180a8b99fd9_2.jpg\" style=\"max-width: 100%\"/></br></br></br></br></br></br></br></br></br></br></br></br></br></br></br></br></br></br></br></br></br></br></br></br></br></br></br></br></br></br></br></br></br>",
  "mediaInfo": "General\nUnique ID                                : 316256034551282157906662999412575787794 (0xEDECB25B29E90F6A2CF658531AE75B12)\nComplete name                            : /Downloads/Tee.Yai.Born.To.Be.Bad.2025.2160p.NF.WEB-DL.DV.H.265.DDP5.1.Atmos-ADWeb/Tee.Yai.Born.To.Be.Bad.2025.2160p.NF.WEB-DL.DV.H.265.DDP5.1.Atmos-ADWeb.mkv\nFormat                                   : Matroska\nFormat version                           : Version 4\nFile size                                : 15.2 GiB\nDuration                                 : 1 h 57 min\nOverall bit rate                         : 18.5 Mb/s\nFrame rate                               : 24.000 FPS\nEncoded date                : 2025-11-14 09: 18: 29 UTC\nWriting application                      : mkvmerge v85.0 ('Shame For You') 64-bit\nWriting library                          : libebml v1.4.5 + libmatroska v1.7.1\nMuxer                                    : ADWeb\n\nVideo\nID                                       : 1\nFormat                                   : HEVC\nFormat/Info                              : High Efficiency Video Coding\nFormat profile                           : Main 10@L5@Main\nHDR format                               : Dolby Vision, Version 1.0, dvhe.05.06, BL+RPU\nCodec ID                                 : V_MPEGH/ISO/HEVC\nDuration                                 : 1 h 57 min\nBit rate                               : 17.7 Mb/s\nWidth                                    : 3 840 pixels\nHeight                                   : 2 160 pixels\nDisplay aspect ratio                     : 16: 9\nFrame rate mode                          : Constant\nFrame rate                               : 24.000 FPS\nColor space                              : YUV\nChroma subsampling                
       : 4: 2: 0\nBit depth                                : 10 bits\nBits/(Pixel*Frame)                       : 0.089\nStream size                              : 14.6 GiB (96%)\nDefault                                  : Yes\nForced                                   : No\nColor range                              : Full\n\nAudio\nID                                    
   : 2\nFormat                                   : E-AC-3 JOC\nFormat/Info                              : Enhanced AC-3 with Joint Object Coding\nCommercial name                       
   : Dolby Digital Plus with Dolby Atmos\nCodec ID                                 : A_EAC3\nDuration                                 : 1 h 57 min\nBit rate mode                       
     : Constant\nBit rate                                 : 768 kb/s\nChannel(s)                               : 6 channels\nChannel layout                           : L R C LFE Ls Rs\nSampling rate                            : 48.0 kHz\nFrame rate                               : 31.250 FPS (1536 SPF)\nCompression mode                         : Lossy\nStream size                              : 647 MiB (4%)\nLanguage                                 : Thai\nService kind                             : Complete Main\nDefault                           
       : Yes\nForced                                   : No\nComplexity index                         : 16\nNumber of dynamic objects                : 15\nBed channel count            
            : 1 channel\nBed channel configuration                : LFE\n\nText #1\nID                                       : 3\nFormat                                   : UTF-8\nCodec ID                                 : S_TEXT/UTF8\nCodec ID/Info                            : UTF-8 Plain Text\nDuration                                 : 1 h 56 min\nBit rate                                 : 48 b/s\nFrame rate                               : 0.136 FPS\nCount of elements                        : 953\nStream size                              : 41.7 KiB (0%)\nLanguage                                 : Arabic\nDefault                                  : No\nForced                                   : No\n\nText #2\nID               
                        : 4\nFormat                                   : UTF-8\nCodec ID                                 : S_TEXT/UTF8\nCodec ID/Info                            : UTF-8 Plain Text\nDuration                                 : 1 h 56 min\nBit rate                                 : 28 b/s\nFrame rate                               : 0.136 FPS\nCount of elements                        : 952\nStream size                              : 24.7 KiB (0%)\nLanguage                                 : Czech\nDefault                                 
 : No\nForced                                   : No\n\nText #3\nID                                       : 5\nFormat                                   : UTF-8\nCodec ID               
                  : S_TEXT/UTF8\nCodec ID/Info                            : UTF-8 Plain Text\nDuration                                 : 1 h 56 min\nBit rate                           
      : 27 b/s\nFrame rate                               : 0.127 FPS\nCount of elements                        : 889\nStream size                              : 23.7 KiB (0%)\nLanguage                                 : Danish\nDefault                                  : No\nForced                                   : No\n\nText #4\nID                                  
     : 6\nFormat                                   : UTF-8\nCodec ID                                 : S_TEXT/UTF8\nCodec ID/Info                            : UTF-8 Plain Text\nDuration                                 : 1 h 56 min\nBit rate                                 : 29 b/s\nFrame rate                               : 0.131 FPS\nCount of elements              
          : 920\nStream size                              : 25.6 KiB (0%)\nLanguage                                 : German\nDefault                                  : No\nForced                                   : No\n\nText #5\nID                                       : 7\nFormat                                   : UTF-8\nCodec ID                                 
: S_TEXT/UTF8\nCodec ID/Info                            : UTF-8 Plain Text\nDuration                                 : 1 h 56 min\nBit rate                                 : 45 b/s\nFrame rate                               : 0.124 FPS\nCount of elements                        : 867\nStream size                              : 38.7 KiB (0%)\nLanguage                  
               : Greek\nDefault                                  : No\nForced                                   : No\n\nText #6\nID                                       : 8\nFormat                                   : UTF-8\nCodec ID                                 : S_TEXT/UTF8\nCodec ID/Info                            : UTF-8 Plain Text\nDuration                  
               : 1 h 49 min\nBit rate                                 : 32 b/s\nFrame rate                               : 0.150 FPS\nCount of elements                        : 986\nStream size                              : 26.3 KiB (0%)\nLanguage                                 : English\nDefault                                  : No\nForced                       
            : No\n\nText #7\nID                                       : 9\nFormat                                   : UTF-8\nCodec ID                                 : S_TEXT/UTF8\nCodec ID/Info                            : UTF-8 Plain Text\nDuration                                 : 1 h 56 min\nBit rate                                 : 30 b/s\nFrame rate          
                     : 0.135 FPS\nCount of elements                        : 946\nStream size                              : 25.7 KiB (0%)\nLanguage                                 : English\nDefault                                  : No\nForced                                   : No\n\nText #8\nID                                       : 10\nFormat                  
                 : UTF-8\nCodec ID                                 : S_TEXT/UTF8\nCodec ID/Info                            : UTF-8 Plain Text\nDuration                                 
: 1 h 57 min\nBit rate                                 : 39 b/s\nFrame rate                               : 0.187 FPS\nCount of elements                        : 1312\nStream size                              : 34.0 KiB (0%)\nTitle                                    : SDH\nLanguage                                 : English\nDefault                                  : No\nForced                                   : No\n\nText #9\nID                                       : 11\nFormat                                   : UTF-8\nCodec ID                
                 : S_TEXT/UTF8\nCodec ID/Info                            : UTF-8 Plain Text\nDuration                                 : 1 h 49 min\nBit rate                            
     : 29 b/s\nFrame rate                               : 0.143 FPS\nCount of elements                        : 940\nStream size                              : 23.5 KiB (0%)\nTitle                                    : Latin American\nLanguage                                 : Spanish\nDefault                                  : No\nForced                             
      : No\n\nText #10\nID                                       : 12\nFormat                                   : UTF-8\nCodec ID                                 : S_TEXT/UTF8\nCodec ID/Info                            : UTF-8 Plain Text\nDuration                                 : 1 h 49 min\nBit rate                                 : 33 b/s\nFrame rate              
                 : 0.147 FPS\nCount of elements                        : 968\nStream size                              : 26.6 KiB (0%)\nTitle                                    : Latin American\nLanguage                                 : Spanish\nDefault                                  : No\nForced                                   : No\n\nText #11\nID             
                          : 13\nFormat                                   : UTF-8\nCodec ID                                 : S_TEXT/UTF8\nCodec ID/Info                            : UTF-8 Plain Text\nDuration                                 : 1 h 49 min\nBit rate                                 : 31 b/s\nFrame rate                               : 0.142 FPS\nCount of elements                        : 933\nStream size                              : 25.2 KiB (0%)\nTitle                                    : European\nLanguage                          
       : Spanish\nDefault                                  : No\nForced                                   : No\n\nText #12\nID                                       : 14\nFormat                                   : UTF-8\nCodec ID                                 : S_TEXT/UTF8\nCodec ID/Info                            : UTF-8 Plain Text\nDuration                      
           : 1 h 49 min\nBit rate                                 : 31 b/s\nFrame rate                               : 0.161 FPS\nCount of elements                        : 1062\nStream size                              : 25.1 KiB (0%)\nTitle                                    : European\nLanguage                                 : Spanish\nDefault                   
               : No\nForced                                   : No\n\nText #13\nID                                       : 15\nFormat                                   : UTF-8\nCodec ID                                 : S_TEXT/UTF8\nCodec ID/Info                            : UTF-8 Plain Text\nDuration                                 : 1 h 56 min\nBit rate           
                      : 29 b/s\nFrame rate                               : 0.110 FPS\nCount of elements                        : 768\nStream size                              : 24.9 KiB (0%)\nLanguage                                 : Finnish\nDefault                                  : No\nForced                                   : No\n\nText #14\nID                
                       : 16\nFormat                                   : UTF-8\nCodec ID                                 : S_TEXT/UTF8\nCodec ID/Info                            : UTF-8 Plain Text\nDuration                                 : 1 h 56 min\nBit rate                                 : 30 b/s\nFrame rate                               : 0.134 FPS\nCount of elements                        : 942\nStream size                              : 26.0 KiB (0%)\nLanguage                                 : fil\nDefault                                  : No\nForced                                   : No\n\nText #15\nID                                       : 17\nFormat                                   : UTF-8\nCodec ID               
                  : S_TEXT/UTF8\nCodec ID/Info                            : UTF-8 Plain Text\nDuration                                 : 1 h 56 min\nBit rate                           
      : 28 b/s\nFrame rate                               : 0.134 FPS\nCount of elements                        : 941\nStream size                              : 24.1 KiB (0%)\nLanguage                                 : French\nDefault                                  : No\nForced                                   : No\n\nText #16\nID                                 
      : 18\nFormat                                   : UTF-8\nCodec ID                                 : S_TEXT/UTF8\nCodec ID/Info                            : UTF-8 Plain Text\nDuration                                 : 1 h 56 min\nBit rate                                 : 46 b/s\nFrame rate                               : 0.134 FPS\nCount of elements            
            : 939\nStream size                              : 39.7 KiB (0%)\nLanguage                                 : Hebrew\nDefault                                  : No\nForced                                   : No\n\nText #17\nID                                       : 19\nFormat                                   : UTF-8\nCodec ID                             
    : S_TEXT/UTF8\nCodec ID/Info                            : UTF-8 Plain Text\nDuration                                 : 1 h 56 min\nBit rate                                 : 25 b/s\nFrame rate                               : 0.134 FPS\nCount of elements                        : 938\nStream size                              : 21.8 KiB (0%)\nLanguage              
                   : Croatian\nDefault                                  : No\nForced                                   : No\n\nText #18\nID                                       : 20\nFormat                                   : UTF-8\nCodec ID                                 : S_TEXT/UTF8\nCodec ID/Info                            : UTF-8 Plain Text\nDuration         
                        : 1 h 56 min\nBit rate                                 : 27 b/s\nFrame rate                               : 0.133 FPS\nCount of elements                        
: 934\nStream size                              : 23.8 KiB (0%)\nLanguage                                 : Hungarian\nDefault                                  : No\nForced            
                       : No\n\nText #19\nID                                       : 21\nFormat                                   : UTF-8\nCodec ID                                 : S_TEXT/UTF8\nCodec ID/Info                            : UTF-8 Plain Text\nDuration                                 : 1 h 56 min\nBit rate                                 : 27 b/s\nFrame rate                               : 0.131 FPS\nCount of elements                        : 915\nStream size                              : 23.8 KiB (0%)\nLanguage                       
          : Indonesian\nDefault                                  : No\nForced                                   : No\n\nText #20\nID                                       : 22\nFormat                                   : UTF-8\nCodec ID                                 : S_TEXT/UTF8\nCodec ID/Info                            : UTF-8 Plain Text\nDuration                
                 : 1 h 49 min\nBit rate                                 : 31 b/s\nFrame rate                               : 0.160 FPS\nCount of elements                        : 1057\nStream size                              : 25.5 KiB (0%)\nLanguage                                 : Indonesian\nDefault                                  : No\nForced                 
                  : No\n\nText #21\nID                                       : 23\nFormat                                   : UTF-8\nCodec ID                                 : S_TEXT/UTF8\nCodec ID/Info                            : UTF-8 Plain Text\nDuration                                 : 1 h 56 min\nBit rate                                 : 28 b/s\nFrame rate                               : 0.133 FPS\nCount of elements                        : 934\nStream size                              : 24.5 KiB (0%)\nLanguage                            
     : Italian\nDefault                                  : No\nForced                                   : No\n\nText #22\nID                                       : 24\nFormat         
                          : UTF-8\nCodec ID                                 : S_TEXT/UTF8\nCodec ID/Info                            : UTF-8 Plain Text\nDuration                        
         : 1 h 56 min\nBit rate                                 : 31 b/s\nFrame rate                               : 0.143 FPS\nCount of elements                        : 1000\nStream size                              : 26.8 KiB (0%)\nLanguage                                 : Japanese\nDefault                                  : No\nForced                           
        : No\n\nText #23\nID                                       : 25\nFormat                                   : UTF-8\nCodec ID                                 : S_TEXT/UTF8\nCodec ID/Info                            : UTF-8 Plain Text\nDuration                                 : 1 h 56 min\nBit rate                                 : 31 b/s\nFrame rate            
                   : 0.135 FPS\nCount of elements                        : 947\nStream size                              : 27.0 KiB (0%)\nLanguage                                 : Korean\nDefault                                  : No\nForced                                   : No\n\nText #24\nID                                       : 26\nFormat                    
               : UTF-8\nCodec ID                                 : S_TEXT/UTF8\nCodec ID/Info                            : UTF-8 Plain Text\nDuration                                 : 1 h 56 min\nBit rate                                 : 28 b/s\nFrame rate                               : 0.130 FPS\nCount of elements                        : 912\nStream size                              : 24.1 KiB (0%)\nLanguage                                 : Malay\nDefault                                  : No\nForced                                   : No\n\nText #25\nID                                       : 27\nFormat                                   : UTF-8\nCodec ID                                 : S_TEXT/UTF8\nCodec ID/Info                            : UTF-8 Plain Text\nDuration                                 : 1 h 56 min\nBit rate                                 : 28 b/s\nFrame rate                           
    : 0.134 FPS\nCount of elements                        : 938\nStream size                              : 24.5 KiB (0%)\nLanguage                                 : Norwegian\nDefault                                  : No\nForced                                   : No\n\nText #26\nID                                       : 28\nFormat                                
   : UTF-8\nCodec ID                                 : S_TEXT/UTF8\nCodec ID/Info                            : UTF-8 Plain Text\nDuration                                 : 1 h 56 min\nBit rate                                 : 27 b/s\nFrame rate                               : 0.113 FPS\nCount of elements                        : 794\nStream size                    
          : 23.6 KiB (0%)\nLanguage                                 : Dutch\nDefault                                  : No\nForced                                   : No\n\nText #27\nID                                       : 29\nFormat                                   : UTF-8\nCodec ID                                 : S_TEXT/UTF8\nCodec ID/Info                   
         : UTF-8 Plain Text\nDuration                                 : 1 h 56 min\nBit rate                                 : 25 b/s\nFrame rate                               : 0.133 FPS\nCount of elements                        : 930\nStream size                              : 22.2 KiB (0%)\nLanguage                                 : Polish\nDefault               
                   : No\nForced                                   : No\n\nText #28\nID                                       : 30\nFormat                                   : UTF-8\nCodec ID                                 : S_TEXT/UTF8\nCodec ID/Info                            : UTF-8 Plain Text\nDuration                                 : 1 h 49 min\nBit rate                                 : 22 b/s\nFrame rate                               : 0.117 FPS\nCount of elements                        : 771\nStream size                              : 18.2 KiB (0%)\nLanguage                                 : Polish\nDefault                                  : No\nForced                                   : No\n\nText #29\nID             
                          : 31\nFormat                                   : UTF-8\nCodec ID                                 : S_TEXT/UTF8\nCodec ID/Info                            : UTF-8 Plain Text\nDuration                                 : 1 h 56 min\nBit rate                                 : 28 b/s\nFrame rate                               : 0.135 FPS\nCount of elements                        : 947\nStream size                              : 24.7 KiB (0%)\nTitle                                    : Brazilian\nLanguage                         
        : Portuguese\nDefault                                  : No\nForced                                   : No\n\nText #30\nID                                       : 32\nFormat                                   : UTF-8\nCodec ID                                 : S_TEXT/UTF8\nCodec ID/Info                            : UTF-8 Plain Text\nDuration                  
               : 1 h 49 min\nBit rate                                 : 32 b/s\nFrame rate                               : 0.155 FPS\nCount of elements                        : 1022\nStream size                              : 26.5 KiB (0%)\nTitle                                    : Brazilian\nLanguage                                 : Portuguese\nDefault           
                       : No\nForced                                   : No\n\nText #31\nID                                       : 33\nFormat                                   : UTF-8\nCodec ID                                 : S_TEXT/UTF8\nCodec ID/Info                            : UTF-8 Plain Text\nDuration                                 : 1 h 56 min\nBit rate                                 : 28 b/s\nFrame rate                               : 0.135 FPS\nCount of elements                        : 948\nStream size                              : 24.3 KiB (0%)\nTitle                                    : European\nLanguage                                 : Portuguese\nDefault                                  : No\nForced                                   : No\n\nText #32\nID                                       : 34\nFormat                                   : UTF-8\nCodec ID                                 
: S_TEXT/UTF8\nCodec ID/Info                            : UTF-8 Plain Text\nDuration                                 : 1 h 56 min\nBit rate                                 : 28 b/s\nFrame rate                               : 0.124 FPS\nCount of elements                        : 868\nStream size                              : 24.6 KiB (0%)\nLanguage                  
               : Romanian\nDefault                                  : No\nForced                                   : No\n\nText #33\nID                                       : 35\nFormat                                   : UTF-8\nCodec ID                                 : S_TEXT/UTF8\nCodec ID/Info                            : UTF-8 Plain Text\nDuration             
                    : 1 h 56 min\nBit rate                                 : 27 b/s\nFrame rate                               : 0.133 FPS\nCount of elements                        : 929\nStream size                              : 23.8 KiB (0%)\nLanguage                                 : Swedish\nDefault                                  : No\nForced                  
                 : No\n\nText #34\nID                                       : 36\nFormat                                   : UTF-8\nCodec ID                                 : S_TEXT/UTF8\nCodec ID/Info                            : UTF-8 Plain Text\nDuration                                 : 1 h 49 min\nBit rate                                 : 71 b/s\nFrame rate                               : 0.152 FPS\nCount of elements                        : 1001\nStream size                              : 57.0 KiB (0%)\nLanguage                            
     : Thai\nDefault                                  : No\nForced                                   : No\n\nText #35\nID                                       : 37\nFormat            
                       : UTF-8\nCodec ID                                 : S_TEXT/UTF8\nCodec ID/Info                            : UTF-8 Plain Text\nDuration                           
      : 1 h 55 min\nBit rate                                 : 101 b/s\nFrame rate                               : 0.202 FPS\nCount of elements                        : 1400\nStream size                              : 85.8 KiB (0%)\nTitle                                    : SDH\nLanguage                                 : Thai\nDefault                               
   : No\nForced                                   : No\n\nText #36\nID                                       : 38\nFormat                                   : UTF-8\nCodec ID           
                      : S_TEXT/UTF8\nCodec ID/Info                            : UTF-8 Plain Text\nDuration                                 : 1 h 56 min\nBit rate                       
          : 27 b/s\nFrame rate                               : 0.130 FPS\nCount of elements                        : 909\nStream size                              : 23.8 KiB (0%)\nLanguage                                 : Turkish\nDefault                                  : No\nForced                                   : No\n\nText #37\nID                            
           : 39\nFormat                                   : UTF-8\nCodec ID                                 : S_TEXT/UTF8\nCodec ID/Info                            : UTF-8 Plain Text\nDuration                                 : 1 h 56 min\nBit rate                                 : 45 b/s\nFrame rate                               : 0.135 FPS\nCount of elements                        : 945\nStream size                              : 39.3 KiB (0%)\nLanguage                                 : Ukrainian\nDefault                                  : No\nForced                                   : No\n\nText #38\nID                                       : 40\nFormat                                   : UTF-8\nCodec ID                     
            : S_TEXT/UTF8\nCodec ID/Info                            : UTF-8 Plain Text\nDuration                                 : 1 h 56 min\nBit rate                                 
: 40 b/s\nFrame rate                               : 0.132 FPS\nCount of elements                        : 926\nStream size                              : 34.3 KiB (0%)\nLanguage                                 : Vietnamese\nDefault                                  : No\nForced                                   : No\n\nText #39\nID                                   
    : 41\nFormat                                   : UTF-8\nCodec ID                                 : S_TEXT/UTF8\nCodec ID/Info                            : UTF-8 Plain Text\nDuration                                 : 1 h 56 min\nBit rate                                 : 26 b/s\nFrame rate                               : 0.135 FPS\nCount of elements              
          : 944\nStream size                              : 22.4 KiB (0%)\nTitle                                    : Simplified\nLanguage                                 : Chinese\nDefault                                  : No\nForced                                   : No\n\nText #40\nID                                       : 42\nFormat                           
        : UTF-8\nCodec ID                                 : S_TEXT/UTF8\nCodec ID/Info                            : UTF-8 Plain Text\nDuration                                 : 1 h 56 min\nBit rate                                 : 24 b/s\nFrame rate                               : 0.137 FPS\nCount of elements                        : 959\nStream size               
               : 20.9 KiB (0%)\nTitle                                    : Traditional\nLanguage                                 : Chinese\nDefault                                  : No\nForced                                   : No\n\nMenu\n00: 00: 00.000                             : en:Part 01\n01: 52: 18.450                             : en:Credits\n\n\n", "isAnonymous": "false", "originalName": "Tee.Yai.Born.To.Be.Bad.2025.2160p.NF.WEB-DL.DV.H.265.DDP5.1.Atmos-ADWeb", "fileBase64_preview": "<len 52660 chars> ZDg6YW5ub3VuY2U3MjpodHRwczovL3B0em9uZS54eXovYW5ub3VuY2UucGhwP3Bhc3NrZXk9ZmNlNTFiYTE5MjI0ZWIxNTMwNjhjZGIwOWMzNWU5MGE3OmNv..."}